<svg xmlns="http://www.w3.org/2000/svg" viewBox="0 0 256 256">
  <defs>
    <linearGradient id="g" x1="0" y1="0" x2="1" y2="1">
      <stop offset="0" stop-color="#7c4dff"/>
      <stop offset="1" stop-color="#22d3ee"/>
    </linearGradient>
  </defs>
  <rect width="256" height="256" rx="56" fill="#0b0d10"/>
  <g transform="translate(28,28)">
    <path d="M20 128C20 66 66 20 128 20s108 46 108 108-46 108-108 108S20 190 20 128Z" fill="none" stroke="url(#g)" stroke-width="16"/>
    <path d="M56 144c0-40 32-72 72-72 20 0 38 8 50 21l-18 18c-7-8-19-13-32-13-26 0-48 22-48 48s22 48 48 48c20 0 38-12 45-30h-53v-24h84c1 4 2 9 2 14 0 44-36 80-80 80s-80-36-80-80Z" fill="url(#g)"/>
  </g>
</svg>


